<?xml version="1.0" encoding="UTF-8" standalone="no"?><!DOCTYPE svg PUBLIC "-//W3C//DTD SVG 1.1//EN" "http://www.w3.org/Graphics/SVG/1.1/DTD/svg11.dtd"><svg width="100%" height="100%" viewBox="0 0 24 24" version="1.1" xmlns="http://www.w3.org/2000/svg" xmlns:xlink="http://www.w3.org/1999/xlink" xml:space="preserve" xmlns:serif="http://www.serif.com/" style="fill-rule:evenodd;clip-rule:evenodd;stroke-linejoin:round;stroke-miterlimit:2;"><g id="Icon"><path d="M7.5,16c1.518,0 2.75,1.232 2.75,2.75c-0,1.518 -1.232,2.75 -2.75,2.75c-1.518,0 -2.75,-1.232 -2.75,-2.75c-0,-1.518 1.232,-2.75 2.75,-2.75Zm-0,1.5c-0.69,0 -1.25,0.56 -1.25,1.25c-0,0.69 0.56,1.25 1.25,1.25c0.69,0 1.25,-0.56 1.25,-1.25c-0,-0.69 -0.56,-1.25 -1.25,-1.25Z"/><path d="M16.5,16c1.518,0 2.75,1.232 2.75,2.75c-0,1.518 -1.232,2.75 -2.75,2.75c-1.518,0 -2.75,-1.232 -2.75,-2.75c-0,-1.518 1.232,-2.75 2.75,-2.75Zm-0,1.5c-0.69,0 -1.25,0.56 -1.25,1.25c-0,0.69 0.56,1.25 1.25,1.25c0.69,0 1.25,-0.56 1.25,-1.25c-0,-0.69 -0.56,-1.25 -1.25,-1.25Z"/><path d="M9.5,19.5c-0.414,0 -0.75,-0.336 -0.75,-0.75c-0,-0.414 0.336,-0.75 0.75,-0.75l5,0c0.414,0 0.75,0.336 0.75,0.75c-0,0.414 -0.336,0.75 -0.75,0.75l-5,0Z"/><path d="M15.75,16.75c0,0.414 -0.336,0.75 -0.75,0.75c-0.414,0 -0.75,-0.336 -0.75,-0.75l0,-9c0,-0.332 -0.132,-0.649 -0.366,-0.884c-0.293,-0.293 -0.293,-0.768 -0,-1.061c0.293,-0.292 0.768,-0.292 1.061,0c0.515,0.516 0.805,1.216 0.805,1.945l-0,9Z"/><path d="M1.25,10.75c0,-0.414 0.336,-0.75 0.75,-0.75c0.414,0 0.75,0.336 0.75,0.75l0,6c0,0.69 0.56,1.25 1.25,1.25l1.5,0c0.414,0 0.75,0.336 0.75,0.75c-0,0.414 -0.336,0.75 -0.75,0.75l-1.5,0c-1.519,-0 -2.75,-1.231 -2.75,-2.75l-0,-6Z"/><path d="M18.5,19.5c-0.414,0 -0.75,-0.336 -0.75,-0.75c-0,-0.414 0.336,-0.75 0.75,-0.75l2.5,-0c0.138,-0 0.25,-0.112 0.25,-0.25l-0,-3.592c0,-0.444 -0.131,-0.878 -0.378,-1.248l-2.199,-3.299c-0.047,-0.069 -0.125,-0.111 -0.208,-0.111c-0,0 -2.715,0 -2.715,-0l-0,7.75c0,0.414 -0.336,0.75 -0.75,0.75c-0.414,0 -0.75,-0.336 -0.75,-0.75l-0,-8.5c0,-0.414 0.336,-0.75 0.75,-0.75l3.465,0c0.585,0 1.131,0.292 1.456,0.779l2.199,3.299c0.411,0.616 0.63,1.34 0.63,2.08l-0,3.592c-0,0.967 -0.784,1.75 -1.75,1.75l-2.5,0Z"/><path d="M21.5,12.5c0.414,0 0.75,0.336 0.75,0.75c-0,0.414 -0.336,0.75 -0.75,0.75l-6.5,0c-0.414,0 -0.75,-0.336 -0.75,-0.75c-0,-0.414 0.336,-0.75 0.75,-0.75l6.5,0Z"/><path d="M6.75,3.25c0,-0.414 0.336,-0.75 0.75,-0.75c0.414,0 0.75,0.336 0.75,0.75l0,2c0,0.138 0.112,0.25 0.25,0.25l1.25,0l0,-2.25c-0,-0.414 0.336,-0.75 0.75,-0.75c0.414,-0 0.75,0.336 0.75,0.75l0,3c-0,0.414 -0.336,0.75 -0.75,0.75l-2,-0c-0.967,-0 -1.75,-0.783 -1.75,-1.75l0,-2Z"/><path d="M9.75,6.25c-0,-0.414 0.336,-0.75 0.75,-0.75c0.414,-0 0.75,0.336 0.75,0.75l0,2c-0,0.414 -0.336,0.75 -0.75,0.75c-0.414,-0 -0.75,-0.336 -0.75,-0.75l0,-2Z"/><path d="M2.75,4.833c-0,0.414 -0.336,0.75 -0.75,0.75c-0.414,0 -0.75,-0.336 -0.75,-0.75c-0,-1.298 1.02,-2.333 2.25,-2.333c1.23,-0 2.25,1.035 2.25,2.333c-0,0.445 -0.309,1.06 -0.84,1.651c-0.231,0.257 -0.5,0.518 -0.775,0.766l0.865,0c0.414,0 0.75,0.336 0.75,0.75c-0,0.414 -0.336,0.75 -0.75,0.75l-3,-0c-0.327,0 -0.616,-0.212 -0.715,-0.524c-0.099,-0.311 0.016,-0.651 0.283,-0.839c0,-0 1.392,-0.976 2.226,-1.905c0.152,-0.17 0.285,-0.336 0.377,-0.493c0.036,-0.06 0.079,-0.107 0.079,-0.156c-0,-0.449 -0.324,-0.833 -0.75,-0.833c-0.426,-0 -0.75,0.384 -0.75,0.833Z"/></g></svg>